#include "melodies.h"

melody_t star_wars_melody = {
    120,
    88,
    {
    // Dart Vader theme (Imperial March) - Star wars 
    // Score available at https://musescore.com/user/202909/scores/1141521
    // The tenor saxophone part was used
    
    NOTE_AS4,8, NOTE_AS4,8, NOTE_AS4,8,//1
    NOTE_F5,2, NOTE_C6,2,
    NOTE_AS5,8, NOTE_A5,8, NOTE_G5,8, NOTE_F6,2, NOTE_C6,4,  
    NOTE_AS5,8, NOTE_A5,8, NOTE_G5,8, NOTE_F6,2, NOTE_C6,4,  
    NOTE_AS5,8, NOTE_A5,8, NOTE_AS5,8, NOTE_G5,2, NOTE_C5,8, NOTE_C5,8, NOTE_C5,8,
    NOTE_F5,2, NOTE_C6,2,
    NOTE_AS5,8, NOTE_A5,8, NOTE_G5,8, NOTE_F6,2, NOTE_C6,4,  
    
    NOTE_AS5,8, NOTE_A5,8, NOTE_G5,8, NOTE_F6,2, NOTE_C6,4, //8  
    NOTE_AS5,8, NOTE_A5,8, NOTE_AS5,8, NOTE_G5,2, NOTE_C5,-8, NOTE_C5,16, 
    NOTE_D5,-4, NOTE_D5,8, NOTE_AS5,8, NOTE_A5,8, NOTE_G5,8, NOTE_F5,8,
    NOTE_F5,8, NOTE_G5,8, NOTE_A5,8, NOTE_G5,4, NOTE_D5,8, NOTE_E5,4,NOTE_C5,-8, NOTE_C5,16,
    NOTE_D5,-4, NOTE_D5,8, NOTE_AS5,8, NOTE_A5,8, NOTE_G5,8, NOTE_F5,8,
    
    NOTE_C6,-8, NOTE_G5,16, NOTE_G5,2, REST,8, NOTE_C5,8,//13
    NOTE_D5,-4, NOTE_D5,8, NOTE_AS5,8, NOTE_A5,8, NOTE_G5,8, NOTE_F5,8,
    NOTE_F5,8, NOTE_G5,8, NOTE_A5,8, NOTE_G5,4, NOTE_D5,8, NOTE_E5,4,NOTE_C6,-8, NOTE_C6,16,
    NOTE_F6,4, NOTE_DS6,8, NOTE_CS6,4, NOTE_C6,8, NOTE_AS5,4, NOTE_GS5,8, NOTE_G5,4, NOTE_F5,8,
    NOTE_C6,1,
    }
};
melody_t imperial_march_melody = {
    120,
    70,
    {
    
    // Dart Vader theme (Imperial March) - Star wars 
    // Score available at https://musescore.com/user/202909/scores/1141521
    // The tenor saxophone part was used
    
    // NOTE_A4,-4, NOTE_A4,-4, NOTE_A4,16, NOTE_A4,16, NOTE_A4,16, NOTE_A4,16, NOTE_F4,8, REST,8,
    // NOTE_A4,-4, NOTE_A4,-4, NOTE_A4,16, NOTE_A4,16, NOTE_A4,16, NOTE_A4,16, NOTE_F4,8, REST,8,
    NOTE_A4,4, NOTE_A4,4, NOTE_A4,4, NOTE_F4,-8, NOTE_C5,16,

    NOTE_A4,4, NOTE_F4,-8, NOTE_C5,16, NOTE_A4,2,//4
    NOTE_E5,4, NOTE_E5,4, NOTE_E5,4, NOTE_F5,-8, NOTE_C5,16,
    NOTE_GS4,4, NOTE_F4,-8, NOTE_C5,16, NOTE_A4,2,
    
    NOTE_A5,4, NOTE_A4,-8, NOTE_A4,16, NOTE_A5,4, NOTE_GS5,-8, NOTE_G5,16, //7 
    NOTE_FS5,16, NOTE_D5,16, NOTE_FS5,8, REST,8, NOTE_AS4,8, NOTE_DS5,4, NOTE_D5,-8, NOTE_CS5,16,

    NOTE_C5,16, NOTE_B4,16, NOTE_C5,16, REST,8, NOTE_F4,8, NOTE_GS4,4, NOTE_F4,-8, NOTE_GS4,-16,//9
    NOTE_C5,4, NOTE_A4,-8, NOTE_C5,16, NOTE_E5,2,

    NOTE_A5,4, NOTE_A4,-8, NOTE_A4,16, NOTE_A5,4, NOTE_GS5,-8, NOTE_G5,16, //7 
    NOTE_FS5,16, NOTE_F5,16, NOTE_FS5,8, REST,8, NOTE_AS4,8, NOTE_DS5,4, NOTE_D5,-8, NOTE_CS5,16,

    NOTE_C5,16, NOTE_B4,16, NOTE_C5,16, REST,8, NOTE_F4,8, NOTE_GS4,4, NOTE_F4,-8, NOTE_C5,-16,//9
    NOTE_A4,4, NOTE_F4,-8, NOTE_C5,16, NOTE_A4,2,

    }
};